<!-- Generated by IcoMoon.io -->
<svg version="1.1" xmlns="http://www.w3.org/2000/svg" width="32" height="32" viewBox="0 0 32 32">
<title>add</title>
<path fill="#8f8f8f" d="M27.2 8.22h-3.42v-2.8c0-1.889-1.531-3.42-3.42-3.42v0h-14.94c-1.889 0-3.42 1.531-3.42 3.42v0 14.94c0 1.889 1.531 3.42 3.42 3.42v0h2.8v3.42c0.006 1.537 1.244 2.783 2.778 2.8h16.202c1.544-0.006 2.794-1.256 2.8-2.799v-16.201c-0.017-1.536-1.263-2.774-2.799-2.78h-0.001zM5.42 21.91c-0.856 0-1.55-0.694-1.55-1.55v0-14.94c-0-0.003-0-0.006-0-0.010 0-0.851 0.689-1.54 1.54-1.54 0.004 0 0.007 0 0.011 0h14.939c0.856 0 1.55 0.694 1.55 1.55v0 2.8h-10.91c-1.529 0.017-2.763 1.251-2.78 2.778v10.912zM28.13 27.2c0 0.514-0.416 0.93-0.93 0.93v0h-16.2c-0.514 0-0.93-0.416-0.93-0.93v0-16.2c0-0.514 0.416-0.93 0.93-0.93v0h16.2c0.514 0 0.93 0.416 0.93 0.93v0z"></path>
<path fill="#8f8f8f" d="M24.090 18.18h-4.090v-4c0-0.514-0.416-0.93-0.93-0.93s-0.93 0.416-0.93 0.93v4h-4c-0.514 0-0.93 0.416-0.93 0.93s0.416 0.93 0.93 0.93h4v4.050c0 0.514 0.416 0.93 0.93 0.93s0.93-0.416 0.93-0.93v-4.090h4.050c0.514 0 0.93-0.416 0.93-0.93s-0.416-0.93-0.93-0.93v0z"></path>
</svg>
