<!-- Generated by IcoMoon.io -->
<svg version="1.1" xmlns="http://www.w3.org/2000/svg" width="32" height="32" viewBox="0 0 32 32">
<title>posts</title>
<path fill="#8f8f8f" d="M24.89 6.61h-2.58v-2.14c0-1.364-1.106-2.47-2.47-2.47v0h-13.060c-1.364 0-2.47 1.106-2.47 2.47v0 18.45c0 1.364 1.106 2.47 2.47 2.47h2.91v1.81c0 1.546 1.254 2.8 2.8 2.8v0h12.4c1.546 0 2.8-1.254 2.8-2.8v-17.79c0-1.546-1.254-2.8-2.8-2.8v0zM6.78 23.52c-0 0-0 0-0 0-0.333 0-0.604-0.267-0.61-0.599v-18.451c0.006-0.333 0.277-0.6 0.61-0.6 0 0 0 0 0 0h13.060c0 0 0 0 0 0 0.333 0 0.604 0.267 0.61 0.599v2.141h-8c-1.546 0-2.8 1.254-2.8 2.8v0 14.11zM25.78 27.2c-0.006 0.515-0.424 0.93-0.94 0.93-0 0-0 0-0 0h-12.35c-0 0-0 0-0 0-0.516 0-0.934-0.415-0.94-0.929v-17.791c0.006-0.515 0.424-0.93 0.94-0.93 0 0 0 0 0 0h12.4c0 0 0 0 0 0 0.516 0 0.934 0.415 0.94 0.929v0.001z"></path>
<path fill="#8f8f8f" d="M23.49 13.53h-9.6c-0.029-0.003-0.063-0.005-0.097-0.005-0.519 0-0.94 0.421-0.94 0.94s0.421 0.94 0.94 0.94c0.034 0 0.068-0.002 0.101-0.005l-0.004 0h9.6c0.029 0.003 0.063 0.005 0.097 0.005 0.519 0 0.94-0.421 0.94-0.94s-0.421-0.94-0.94-0.94c-0.034 0-0.068 0.002-0.101 0.005l0.004-0zM23.49 17.37h-9.6c-0.029-0.003-0.063-0.005-0.097-0.005-0.519 0-0.94 0.421-0.94 0.94s0.421 0.94 0.94 0.94c0.034 0 0.068-0.002 0.101-0.005l-0.004 0h9.6c0.029 0.003 0.063 0.005 0.097 0.005 0.519 0 0.94-0.421 0.94-0.94s-0.421-0.94-0.94-0.94c-0.034 0-0.068 0.002-0.101 0.005l0.004-0zM23.49 21.22h-9.6c-0.514 0-0.93 0.416-0.93 0.93s0.416 0.93 0.93 0.93h9.6c0.514 0 0.93-0.416 0.93-0.93s-0.416-0.93-0.93-0.93v0z"></path>
</svg>
